<?xml version="1.0" encoding="utf-8"?>
<!-- Generator: Adobe Illustrator 22.0.1, SVG Export Plug-In . SVG Version: 6.00 Build 0)  -->
<svg version="1.1" id="Layer_1" xmlns="http://www.w3.org/2000/svg" xmlns:xlink="http://www.w3.org/1999/xlink" x="0px" y="0px"
	 viewBox="0 0 68.5 87.8" style="enable-background:new 0 0 68.5 87.8;" xml:space="preserve">
<style type="text/css">
	.st0{fill:url(#SVGID_1_);}
	.st1{fill:none;stroke:#FFFFFF;stroke-width:1.5;stroke-miterlimit:10;}
	.st2{fill:none;stroke:#FFFFFF;stroke-width:1.5;stroke-linecap:round;stroke-miterlimit:10;}
	.st3{fill:none;stroke:#2E3192;stroke-width:1.5;stroke-miterlimit:10;}
</style>
<radialGradient id="SVGID_1_" cx="52.0205" cy="48.8897" r="50.4794" gradientTransform="matrix(0.6583 0 0 0.897 0 0)" gradientUnits="userSpaceOnUse">
	<stop  offset="0" style="stop-color:#8CC63F"/>
	<stop  offset="0.1634" style="stop-color:#83C444"/>
	<stop  offset="0.4352" style="stop-color:#69C050"/>
	<stop  offset="0.7795" style="stop-color:#40BA64"/>
	<stop  offset="1" style="stop-color:#22B573"/>
</radialGradient>
<rect class="st0" width="68.5" height="87.7"/>
<g>
	<g>
		<line class="st1" x1="20.1" y1="27.6" x2="25.8" y2="25.7"/>
		<line class="st1" x1="21.3" y1="31.2" x2="27" y2="29.3"/>
		<line class="st1" x1="22.6" y1="34.8" x2="28.2" y2="32.9"/>
		<line class="st1" x1="23.8" y1="38.4" x2="29.4" y2="36.5"/>
	</g>
	<g>
		<line class="st1" x1="26.8" y1="47.6" x2="32.5" y2="45.6"/>
		<line class="st1" x1="28" y1="51.1" x2="33.7" y2="49.2"/>
		<line class="st1" x1="29.2" y1="54.7" x2="34.9" y2="52.8"/>
		<line class="st1" x1="30.4" y1="58.3" x2="36.1" y2="56.4"/>
	</g>
	<g>
		<line class="st1" x1="31.7" y1="62" x2="37.3" y2="60"/>
		<line class="st1" x1="32.9" y1="65.5" x2="38.5" y2="63.6"/>
		<line class="st1" x1="34.1" y1="69.1" x2="39.8" y2="67.2"/>
		<line class="st1" x1="35.3" y1="72.7" x2="41" y2="70.8"/>
	</g>
	<g>
		<g id="XMLID_3_">
			<g>
			</g>
			<g>
				<path class="st2" d="M18.4,22.9c-3.8-0.1-7.4-2.6-8.7-6.4c-1.7-4.9,1-10.3,5.9-11.9s10.2,1,11.9,5.9c1.3,3.8,0,7.9-3,10.3"/>
			</g>
		</g>
		<path class="st2" d="M30.9,83.6l4.9-1.7c1.3-0.4,1.9-2,1.4-3.4l-0.1-0.4L26.3,46l-0.1-0.3c-1.7-0.1-3.1-0.9-3.5-2.3
			c-0.5-1.3,0.2-2.8,1.4-3.9l-0.1-0.2L18.6,23"/>
		<path class="st2" d="M51.1,76.9l-4.9,1.7c-1.3,0.4-2.7-0.4-3.2-1.9l-0.1-0.4L32,44.1l-0.1-0.3c1.3-1.1,1.9-2.6,1.5-4
			c-0.5-1.3-1.8-2.2-3.5-2.3l-0.1-0.2l-5.5-16.3"/>
		<path class="st3" d="M30.7,59.1L26.3,46l-0.1-0.3c-1.7-0.1-3.1-0.9-3.5-2.3c-0.5-1.3,0.2-2.8,1.4-3.9l-0.1-0.2l-3.2-9.6"/>
	</g>
</g>
</svg>
